<?xml version="1.0" standalone="no"?><!DOCTYPE svg PUBLIC "-//W3C//DTD SVG 1.1//EN" "http://www.w3.org/Graphics/SVG/1.1/DTD/svg11.dtd"><svg t="1700233376414" class="icon" viewBox="0 0 1024 1024" version="1.1" xmlns="http://www.w3.org/2000/svg" p-id="11242" xmlns:xlink="http://www.w3.org/1999/xlink" width="200" height="200"><path d="M928 832l-64 32-352 160-352-160-64-32a96 96 0 0 1-96-96V96a96 96 0 0 1 96-96l64 32 352 160 352-160 64-32a96 96 0 0 1 96 96v640a96 96 0 0 1-96 96z m-480 0V288L128 192v544l320 128v-32zM896 192L576 288v576l320-128V192z" fill="#1677ff" p-id="11243"></path></svg>